<?xml version="1.0" encoding="UTF-8" standalone="no"?>
<!-- Created with Inkscape (http://www.inkscape.org/) -->

<svg
   xmlns:dc="http://purl.org/dc/elements/1.1/"
   xmlns:cc="http://creativecommons.org/ns#"
   xmlns:rdf="http://www.w3.org/1999/02/22-rdf-syntax-ns#"
   xmlns:svg="http://www.w3.org/2000/svg"
   xmlns="http://www.w3.org/2000/svg"
   xmlns:sodipodi="http://sodipodi.sourceforge.net/DTD/sodipodi-0.dtd"
   xmlns:inkscape="http://www.inkscape.org/namespaces/inkscape"
   width="833.28662"
   height="310.83701"
   id="svg2"
   version="1.1"
   inkscape:version="0.48.4 r9939"
   viewBox="0 0 833.28656 310.837"
   sodipodi:docname="ergodox_bepo.svg"
   inkscape:export-filename="/home/yekcim/hubic/bépo/10 ergobépo.png"
   inkscape:export-xdpi="148"
   inkscape:export-ydpi="148">
  <sodipodi:namedview
     id="base"
     pagecolor="#ffffff"
     bordercolor="#666666"
     borderopacity="1.0"
     inkscape:pageopacity="1"
     inkscape:pageshadow="2"
     inkscape:zoom="1.7196964"
     inkscape:cx="286.97374"
     inkscape:cy="204.75394"
     inkscape:document-units="px"
     inkscape:current-layer="layer1"
     showgrid="false"
     inkscape:window-width="1916"
     inkscape:window-height="1058"
     inkscape:window-x="0"
     inkscape:window-y="18"
     inkscape:window-maximized="1"
     fit-margin-top="5"
     fit-margin-right="5"
     fit-margin-left="5"
     fit-margin-bottom="5"
     inkscape:showpageshadow="false"
     borderlayer="true"
     showguides="false"
     inkscape:guide-bbox="true" />
  <defs
     id="defs4">
    <marker
       inkscape:isstock="true"
       style="overflow:visible"
       id="Arrow2Mend-1-1"
       refX="0"
       refY="0"
       orient="auto"
       inkscape:stockid="Arrow2Mend">
      <path
         transform="scale(-0.6,-0.6)"
         d="M 8.7185878,4.0337352 -2.2072895,0.01601326 8.7185884,-4.0017078 c -1.7454984,2.3720609 -1.7354408,5.6174519 -6e-7,8.035443 z"
         style="fill:#000000;fill-opacity:1;fill-rule:evenodd;stroke:#000000;stroke-width:0.625;stroke-linejoin:round;stroke-opacity:1"
         id="path7494-6-3"
         inkscape:connector-curvature="0" />
    </marker>
    <marker
       inkscape:isstock="true"
       style="overflow:visible"
       id="Arrow2Mend-13-8"
       refX="0"
       refY="0"
       orient="auto"
       inkscape:stockid="Arrow2Mend">
      <path
         transform="scale(-0.6,-0.6)"
         d="M 8.7185878,4.0337352 -2.2072895,0.01601326 8.7185884,-4.0017078 c -1.7454984,2.3720609 -1.7354408,5.6174519 -6e-7,8.035443 z"
         style="fill:#000000;fill-opacity:1;fill-rule:evenodd;stroke:#000000;stroke-width:0.625;stroke-linejoin:round;stroke-opacity:1"
         id="path7494-8-95"
         inkscape:connector-curvature="0" />
    </marker>
    <marker
       inkscape:isstock="true"
       style="overflow:visible"
       id="Arrow2Mend-1-1-84K"
       refX="0"
       refY="0"
       orient="auto"
       inkscape:stockid="Arrow2Mend-1-1-84K">
      <path
         transform="scale(-0.6,-0.6)"
         d="M 8.7185878,4.0337352 -2.2072895,0.01601326 8.7185884,-4.0017078 c -1.7454984,2.3720609 -1.7354408,5.6174519 -6e-7,8.035443 z"
         style="fill:#f78900;fill-opacity:1;fill-rule:evenodd;stroke:#f78900;stroke-width:0.625;stroke-linejoin:round;stroke-opacity:1"
         id="path10202"
         inkscape:connector-curvature="0" />
    </marker>
    <marker
       inkscape:isstock="true"
       style="overflow:visible"
       id="Arrow2Mend-1-1-84K-1"
       refX="0"
       refY="0"
       orient="auto"
       inkscape:stockid="Arrow2Mend-1-1-84K">
      <path
         transform="scale(-0.6,-0.6)"
         d="M 8.7185878,4.0337352 -2.2072895,0.01601326 8.7185884,-4.0017078 c -1.7454984,2.3720609 -1.7354408,5.6174519 -6e-7,8.035443 z"
         style="fill:#f78900;fill-opacity:1;fill-rule:evenodd;stroke:#f78900;stroke-width:0.625;stroke-linejoin:round;stroke-opacity:1"
         id="path10202-3"
         inkscape:connector-curvature="0" />
    </marker>
    <marker
       inkscape:isstock="true"
       style="overflow:visible"
       id="Arrow2Mend-13-8-04"
       refX="0"
       refY="0"
       orient="auto"
       inkscape:stockid="Arrow2Mend">
      <path
         transform="scale(-0.6,-0.6)"
         d="M 8.7185878,4.0337352 -2.2072895,0.01601326 8.7185884,-4.0017078 c -1.7454984,2.3720609 -1.7354408,5.6174519 -6e-7,8.035443 z"
         style="fill:#000000;fill-opacity:1;fill-rule:evenodd;stroke:#000000;stroke-width:0.625;stroke-linejoin:round;stroke-opacity:1"
         id="path7494-8-95-46"
         inkscape:connector-curvature="0" />
    </marker>
    <marker
       inkscape:isstock="true"
       style="overflow:visible"
       id="Arrow2Mend-1-1-09"
       refX="0"
       refY="0"
       orient="auto"
       inkscape:stockid="Arrow2Mend">
      <path
         transform="scale(-0.6,-0.6)"
         d="M 8.7185878,4.0337352 -2.2072895,0.01601326 8.7185884,-4.0017078 c -1.7454984,2.3720609 -1.7354408,5.6174519 -6e-7,8.035443 z"
         style="fill:#000000;fill-opacity:1;fill-rule:evenodd;stroke:#000000;stroke-width:0.625;stroke-linejoin:round;stroke-opacity:1"
         id="path7494-6-3-25"
         inkscape:connector-curvature="0" />
    </marker>
  </defs>
  <metadata
     id="metadata7">
    <rdf:RDF>
      <cc:Work
         rdf:about="">
        <dc:format>image/svg+xml</dc:format>
        <dc:type
           rdf:resource="http://purl.org/dc/dcmitype/StillImage" />
        <dc:title />
      </cc:Work>
    </rdf:RDF>
  </metadata>
  <rect x="5" y="10" width="20" height="50"/>

  <g
     transform="translate(378.66378,-1437.2799)"
     id="layer1"
     inkscape:groupmode="layer"
     inkscape:label="Calque 1"
     inkscape:export-ydpi="150"
     inkscape:export-xdpi="150"><path
   style="fill:none;stroke:#000000;stroke-width:0.65429884000000005;fill-opacity:1"
   d="m -373.33666,1453.2397 c 0,12.8134 0,25.6267 0,38.4401 19.629,0 39.258,0 58.887,0 0,-12.8134 0,-25.6267 0,-38.4401 -19.629,0 -39.258,0 -58.887,0 z"
   id="1"
   inkscape:connector-curvature="0" />
<path
   style="fill:none;stroke:#000000;stroke-width:0.65429884"
   d="m -311.17826,1453.2397 c 0,12.8134 0,25.6267 0,38.4401 13.08597,0 26.17193,0 39.2579,0 0,-12.8134 0,-25.6267 0,-38.4401 -13.08597,0 -26.17193,0 -39.2579,0 z"
   id="2"
   inkscape:connector-curvature="0" />
<path
   style="fill:none;stroke:#000000;stroke-width:0.65429884"
   d="m -268.64896,1445.8785 c 0,13.086 0,26.1719 0,39.2579 12.81337,0 25.62673,0 38.4401,0 0,-13.086 0,-26.1719 0,-39.2579 -12.81337,0 -25.62673,0 -38.4401,0 z"
   id="3"
   inkscape:connector-curvature="0" />
<path
   style="fill:none;stroke:#000000;stroke-width:0.65429884"
   d="m -226.93746,1442.607 c 0,12.8134 0,25.6268 0,38.4402 13.086,0 26.172,0 39.258,0 0,-12.8134 0,-25.6268 0,-38.4402 -13.086,0 -26.172,0 -39.258,0 z"
   id="4"
   inkscape:connector-curvature="0" />
<path
   style="fill:none;stroke:#000000;stroke-width:0.65429884"
   d="m -184.40816,1445.8785 c 0,13.086 0,26.1719 0,39.2579 12.8134,0 25.62679,0 38.44019,0 0,-13.086 0,-26.1719 0,-39.2579 -12.8134,0 -25.62679,0 -38.44019,0 z"
   id="5"
   inkscape:connector-curvature="0" />
<path
   style="fill:none;stroke:#000000;stroke-width:0.65429884"
   d="m -142.69667,1448.3327 c 0,13.0858 0,26.1715 0,39.2573 13.086,0 26.172,0 39.258,0 0,-13.0858 0,-26.1715 0,-39.2573 -13.086,0 -26.172,0 -39.258,0 z"
   id="6"
   inkscape:connector-curvature="0" />
<path
   style="fill:none;stroke:#000000;stroke-width:0.65429884"
   d="m -100.98517,1448.3327 c 0,13.0858 0,26.1715 0,39.2573 13.085997,0 26.171993,0 39.25799,0 0,-13.0858 0,-26.1715 0,-39.2573 -13.085997,0 -26.171993,0 -39.25799,0 z"
   id="7"
   inkscape:connector-curvature="0" />
<path
   style="fill:none;stroke:#000000;stroke-width:0.65429884"
   d="m -373.33666,1494.9513 c 0,13.086 0,26.1719 0,39.2579 19.629,0 39.258,0 58.887,0 0,-13.086 0,-26.1719 0,-39.2579 -19.629,0 -39.258,0 -58.887,0 z"
   id="8"
   inkscape:connector-curvature="0" />
<path
   style="fill:none;stroke:#000000;stroke-width:0.65429884"
   d="m -311.17826,1494.9513 c 0,13.086 0,26.1719 0,39.2579 13.08597,0 26.17193,0 39.2579,0 0,-13.086 0,-26.1719 0,-39.2579 -13.08597,0 -26.17193,0 -39.2579,0 z"
   id="9"
   inkscape:connector-curvature="0" />
<path
   style="fill:none;stroke:#000000;stroke-width:0.65429884"
   d="m -268.64896,1487.59 c 0,13.086 0,26.1719 0,39.2579 12.81337,0 25.62673,0 38.4401,0 0,-13.086 0,-26.1719 0,-39.2579 -12.81337,0 -25.62673,0 -38.4401,0 z"
   id="10"
   inkscape:connector-curvature="0" />
<path
   style="fill:none;stroke:#000000;stroke-width:0.65429884"
   d="m -226.93746,1484.3185 c 0,13.086 0,26.172 0,39.258 13.086,0 26.172,0 39.258,0 0,-13.086 0,-26.172 0,-39.258 -13.086,0 -26.172,0 -39.258,0 z"
   id="11"
   inkscape:connector-curvature="0" />
<path
   style="fill:none;stroke:#000000;stroke-width:0.65429884"
   d="m -184.40816,1487.59 c 0,13.086 0,26.1719 0,39.2579 12.8134,0 25.62679,0 38.44019,0 0,-13.086 0,-26.1719 0,-39.2579 -12.8134,0 -25.62679,0 -38.44019,0 z"
   id="12"
   inkscape:connector-curvature="0" />
<path
   style="fill:none;stroke:#000000;stroke-width:0.65429884"
   d="m -142.69667,1490.862 c 0,13.086 0,26.172 0,39.258 13.086,0 26.172,0 39.258,0 0,-13.086 0,-26.172 0,-39.258 -13.086,0 -26.172,0 -39.258,0 z"
   id="13"
   inkscape:connector-curvature="0" />
<path
   style="fill:none;stroke:#000000;stroke-width:0.65429884"
   d="m -100.98517,1491.6798 c 0,19.629 0,39.258 0,58.887 13.085997,0 26.171993,0 39.25799,0 0,-19.629 0,-39.258 0,-58.887 -13.085997,0 -26.171993,0 -39.25799,0 z"
   id="14"
   inkscape:connector-curvature="0" />
<path
   style="fill:none;stroke:#000000;stroke-width:0.65429884"
   d="m -373.33666,1536.6627 c 0,13.086 0,26.172 0,39.258 19.629,0 39.258,0 58.887,0 0,-13.086 0,-26.172 0,-39.258 -19.629,0 -39.258,0 -58.887,0 z"
   id="15"
   inkscape:connector-curvature="0" />
<path
   style="fill:none;stroke:#000000;stroke-width:0.65429884"
   d="m -311.17826,1536.6627 c 0,13.086 0,26.172 0,39.258 13.08597,0 26.17193,0 39.2579,0 0,-13.086 0,-26.172 0,-39.258 -13.08597,0 -26.17193,0 -39.2579,0 z"
   id="16"
   inkscape:connector-curvature="0" />
<path
   style="fill:none;stroke:#000000;stroke-width:0.65429884"
   d="m -268.64896,1530.12 c 0,13.086 0,26.1719 0,39.2579 12.81337,0 25.62673,0 38.4401,0 0,-13.086 0,-26.1719 0,-39.2579 -12.81337,0 -25.62673,0 -38.4401,0 z"
   id="17"
   inkscape:connector-curvature="0" />
<path
   style="fill:none;stroke:#000000;stroke-width:0.65429884"
   d="m -226.93746,1526.8479 c 0,12.8134 0,25.6267 0,38.4401 13.086,0 26.172,0 39.258,0 0,-12.8134 0,-25.6267 0,-38.4401 -13.086,0 -26.172,0 -39.258,0 z"
   id="18"
   inkscape:connector-curvature="0" />
<path
   style="fill:none;stroke:#000000;stroke-width:0.65429884"
   d="m -184.40816,1530.12 c 0,13.086 0,26.1719 0,39.2579 12.8134,0 25.62679,0 38.44019,0 0,-13.086 0,-26.1719 0,-39.2579 -12.8134,0 -25.62679,0 -38.44019,0 z"
   id="19"
   inkscape:connector-curvature="0" />
<path
   style="fill:none;stroke:#000000;stroke-width:0.65429884"
   d="m -142.69667,1532.5735 c 0,13.086 0,26.172 0,39.258 13.086,0 26.172,0 39.258,0 0,-13.086 0,-26.172 0,-39.258 -13.086,0 -26.172,0 -39.258,0 z"
   id="20"
   inkscape:connector-curvature="0" />
<path
   style="fill:none;stroke:#000000;stroke-width:0.65429884"
   d="m -373.33666,1579.192 c 0,13.086 0,26.1721 0,39.2581 19.629,0 39.258,0 58.887,0 0,-13.086 0,-26.1721 0,-39.2581 -19.629,0 -39.258,0 -58.887,0 z"
   id="21"
   inkscape:connector-curvature="0" />
<path
   style="fill:none;stroke:#000000;stroke-width:0.65429884"
   d="m -311.17826,1579.192 c 0,13.086 0,26.1721 0,39.2581 13.08597,0 26.17193,0 39.2579,0 0,-13.086 0,-26.1721 0,-39.2581 -13.08597,0 -26.17193,0 -39.2579,0 z"
   id="22"
   inkscape:connector-curvature="0" />
<path
   style="fill:none;stroke:#000000;stroke-width:0.65429884"
   d="m -268.64896,1571.8315 c 0,13.086 0,26.172 0,39.258 12.81337,0 25.62673,0 38.4401,0 0,-13.086 0,-26.172 0,-39.258 -12.81337,0 -25.62673,0 -38.4401,0 z"
   id="23"
   inkscape:connector-curvature="0" />
<path
   style="fill:none;stroke:#000000;stroke-width:0.65429884"
   d="m -226.93746,1568.5601 c 0,13.086 0,26.1719 0,39.2579 13.086,0 26.172,0 39.258,0 0,-13.086 0,-26.1719 0,-39.2579 -13.086,0 -26.172,0 -39.258,0 z"
   id="24"
   inkscape:connector-curvature="0" />
<path
   style="fill:none;stroke:#000000;stroke-width:0.65429884"
   d="m -184.40816,1571.8315 c 0,13.086 0,26.172 0,39.258 12.8134,0 25.62679,0 38.44019,0 0,-13.086 0,-26.172 0,-39.258 -12.8134,0 -25.62679,0 -38.44019,0 z"
   id="25"
   inkscape:connector-curvature="0" />
<path
   style="fill:none;stroke:#000000;stroke-width:0.65429884"
   d="m -142.69667,1575.1029 c 0,12.8134 0,25.6267 0,38.4401 13.086,0 26.172,0 39.258,0 0,-12.8134 0,-25.6267 0,-38.4401 -13.086,0 -26.172,0 -39.258,0 z"
   id="26"
   inkscape:connector-curvature="0" />
<path
   style="fill:none;stroke:#000000;stroke-width:0.65429884"
   d="m -100.98517,1554.656 c 0,19.629 0,39.258 0,58.887 13.085997,0 26.171993,0 39.25799,0 0,-19.629 0,-39.258 0,-58.887 -13.085997,0 -26.171993,0 -39.25799,0 z"
   id="27"
   inkscape:connector-curvature="0" />
<path
   style="fill:none;stroke:#000000;stroke-width:0.65429884"
   d="m -352.88976,1620.9035 c 0,13.086 0,26.1719 0,39.2579 12.81337,0 25.62673,0 38.4401,0 0,-13.086 0,-26.1719 0,-39.2579 -12.81337,0 -25.62673,0 -38.4401,0 z"
   id="28"
   inkscape:connector-curvature="0" />
<path
   style="fill:none;stroke:#000000;stroke-width:0.65429884"
   d="m -311.17826,1620.9035 c 0,13.086 0,26.1719 0,39.2579 13.08597,0 26.17193,0 39.2579,0 0,-13.086 0,-26.1719 0,-39.2579 -13.08597,0 -26.17193,0 -39.2579,0 z"
   id="29"
   inkscape:connector-curvature="0" />
<path
   style="fill:none;stroke:#000000;stroke-width:0.65429884"
   d="m -268.64896,1614.3608 c 0,12.8133 0,25.6267 0,38.44 12.81337,0 25.62673,0 38.4401,0 0,-12.8133 0,-25.6267 0,-38.44 -12.81337,0 -25.62673,0 -38.4401,0 z"
   id="30"
   inkscape:connector-curvature="0" />
<path
   style="fill:none;stroke:#000000;stroke-width:0.65429884"
   d="m -226.93746,1610.2716 c 0,13.0859 0,26.1719 0,39.2578 13.086,0 26.172,0 39.258,0 0,-13.0859 0,-26.1719 0,-39.2578 -13.086,0 -26.172,0 -39.258,0 z"
   id="31"
   inkscape:connector-curvature="0" />
<path
   style="fill:none;stroke:#000000;stroke-width:0.65429884"
   d="m -184.40816,1614.3608 c 0,12.8133 0,25.6267 0,38.44 12.8134,0 25.62679,0 38.44019,0 0,-12.8133 0,-25.6267 0,-38.44 -12.8134,0 -25.62679,0 -38.44019,0 z"
   id="32"
   inkscape:connector-curvature="0" />
<path
   style="fill:none;stroke:#000000;stroke-width:0.65429884"
   d="m -45.46014,1597.8916 -0.0442,0.01 -15.60785,33.507 34.053939,16.983 16.400439,-34.7411 -34.802298,-15.7566 z"
   id="33"
   inkscape:connector-curvature="0"
   sodipodi:nodetypes="ccccc" />
<path
   style="fill:none;stroke:#000000;stroke-width:0.65429884"
   d="m -6.825562,1615.3696 -15.942719,34.9889 34.342478,16.0712 15.84722,-34.6934 z"
   id="34"
   inkscape:connector-curvature="0"
   sodipodi:nodetypes="ccccc" />
<path
   style="fill:none;stroke:#000000;stroke-width:0.65429884"
   d="m -101.81497,1618.5834 -32.7025,70.7734 33.9739,16.5282 33.61307,-70.341 z"
   id="35"
   inkscape:connector-curvature="0"
   sodipodi:nodetypes="ccccc" />
<path
   style="fill:none;stroke:#000000;stroke-width:0.65429884"
   d="m -63.80304,1636.6391 -32.41193,70.0497 34.61204,16.6032 32.075669,-70.5144 z"
   id="36"
   inkscape:connector-curvature="0"
   sodipodi:nodetypes="ccccc" />
<path
   style="fill:none;stroke:#000000;stroke-width:0.65429884"
   d="m -24.744441,1653.6187 -16.39061,34.763 17.03014,8.0906 17.493469,7.6015 16.5674894,-34.6079 z"
   id="37"
   inkscape:connector-curvature="0"
   sodipodi:nodetypes="ccccc" />
<path
   style="fill:none;stroke:#000000;stroke-width:0.65429884"
   d="m -41.956401,1691.9205 -16.628579,34.6085 34.612749,15.5918 15.582579,-34.6212 z"
   id="38"
   inkscape:connector-curvature="0"
   sodipodi:nodetypes="ccccc" />
<path
   style="fill:none;stroke:#000000;stroke-width:0.65429884"
   d="m 137.68549,1448.332 c 0,13.086 0,26.1719 0,39.2579 13.08599,0 26.17199,0 39.25798,0 0,-13.086 0,-26.1719 0,-39.2579 -13.08599,0 -26.17199,0 -39.25798,0 z"
   id="39"
   inkscape:connector-curvature="0" />
<path
   style="fill:none;stroke:#000000;stroke-width:0.65429884"
   d="m 179.39698,1448.332 c 0,13.086 0,26.1719 0,39.2579 13.08599,0 26.17198,0 39.25797,0 0,-13.086 0,-26.1719 0,-39.2579 -13.08599,0 -26.17198,0 -39.25797,0 z"
   id="40"
   inkscape:connector-curvature="0" />
<path
   style="fill:none;stroke:#000000;stroke-width:0.65429884"
   d="m 221.92633,1445.8784 c 0,13.086 0,26.172 0,39.258 12.81337,0 25.62674,0 38.44011,0 0,-13.086 0,-26.172 0,-39.258 -12.81337,0 -25.62674,0 -38.44011,0 z"
   id="41"
   inkscape:connector-curvature="0" />
<path
   style="fill:none;stroke:#000000;stroke-width:0.65429884"
   d="m 263.63781,1442.607 c 0,12.8134 0,25.6268 0,38.4402 13.08599,0 26.17199,0 39.25798,0 0,-12.8134 0,-25.6268 0,-38.4402 -13.08599,0 -26.17199,0 -39.25798,0 z"
   id="42"
   inkscape:connector-curvature="0" />
<path
   style="fill:none;stroke:#000000;stroke-width:0.65429884"
   d="m 306.16716,1445.8784 c 0,13.086 0,26.172 0,39.258 12.81338,0 25.62677,0 38.44015,0 0,-13.086 0,-26.172 0,-39.258 -12.81338,0 -25.62677,0 -38.44015,0 z"
   id="43"
   inkscape:connector-curvature="0" />
<path
   style="fill:none;stroke:#000000;stroke-width:0.65429884"
   d="m 347.87939,1453.2397 c 0,12.8134 0,25.6267 0,38.4401 13.08599,0 26.17197,0 39.25796,0 0,-12.8134 0,-25.6267 0,-38.4401 -13.08599,0 -26.17197,0 -39.25796,0 z"
   id="44"
   inkscape:connector-curvature="0" />
<path
   style="fill:none;stroke:#000000;stroke-width:0.65429884"
   d="m 390.40868,1453.2397 c 0,12.8134 0,25.6267 0,38.4401 19.62898,0 39.25797,0 58.88695,0 0,-12.8134 0,-25.6267 0,-38.4401 -19.62898,0 -39.25797,0 -58.88695,0 z"
   id="45"
   inkscape:connector-curvature="0" />
<path
   style="fill:none;stroke:#000000;stroke-width:0.65429884"
   d="m 137.68549,1491.6798 c 0,19.629 0,39.258 0,58.887 13.08599,0 26.17199,0 39.25798,0 0,-19.629 0,-39.258 0,-58.887 -13.08599,0 -26.17199,0 -39.25798,0 z"
   id="46"
   inkscape:connector-curvature="0" />
<path
   style="fill:none;stroke:#000000;stroke-width:0.65429884"
   d="m 179.39698,1490.862 c 0,13.0857 0,26.1715 0,39.2572 13.08599,0 26.17198,0 39.25797,0 0,-13.0857 0,-26.1715 0,-39.2572 -13.08599,0 -26.17198,0 -39.25797,0 z"
   id="47"
   inkscape:connector-curvature="0" />
<path
   style="fill:none;stroke:#000000;stroke-width:0.65429884"
   d="m 221.92633,1487.5899 c 0,13.086 0,26.172 0,39.258 12.81337,0 25.62674,0 38.44011,0 0,-13.086 0,-26.172 0,-39.258 -12.81337,0 -25.62674,0 -38.44011,0 z"
   id="48"
   inkscape:connector-curvature="0" />
<path
   style="fill:none;stroke:#000000;stroke-width:0.65429884"
   d="m 263.63781,1484.3186 c 0,13.086 0,26.1719 0,39.2579 13.08599,0 26.17199,0 39.25798,0 0,-13.086 0,-26.1719 0,-39.2579 -13.08599,0 -26.17199,0 -39.25798,0 z"
   id="49"
   inkscape:connector-curvature="0" />
<path
   style="fill:none;stroke:#000000;stroke-width:0.65429884"
   d="m 306.16716,1487.5899 c 0,13.086 0,26.172 0,39.258 12.81338,0 25.62677,0 38.44015,0 0,-13.086 0,-26.172 0,-39.258 -12.81338,0 -25.62677,0 -38.44015,0 z"
   id="50"
   inkscape:connector-curvature="0" />
<path
   style="fill:none;stroke:#000000;stroke-width:0.65429884"
   d="m 347.87939,1494.9512 c 0,13.086 0,26.172 0,39.258 13.08599,0 26.17197,0 39.25796,0 0,-13.086 0,-26.172 0,-39.258 -13.08599,0 -26.17197,0 -39.25796,0 z"
   id="51"
   inkscape:connector-curvature="0" />
<path
   style="fill:none;stroke:#000000;stroke-width:0.65429884"
   d="m 390.40868,1494.9512 c 0,13.086 0,26.172 0,39.258 19.62898,0 39.25797,0 58.88695,0 0,-13.086 0,-26.172 0,-39.258 -19.62898,0 -39.25797,0 -58.88695,0 z"
   id="52"
   inkscape:connector-curvature="0" />
<path
   style="fill:none;stroke:#000000;stroke-width:0.65429884"
   d="m 179.39698,1532.5735 c 0,13.086 0,26.1719 0,39.2579 13.08599,0 26.17198,0 39.25797,0 0,-13.086 0,-26.1719 0,-39.2579 -13.08599,0 -26.17198,0 -39.25797,0 z"
   id="53"
   inkscape:connector-curvature="0" />
<path
   style="fill:none;stroke:#000000;stroke-width:0.65429884"
   d="m 221.92633,1530.1192 c 0,13.086 0,26.172 0,39.258 12.81337,0 25.62674,0 38.44011,0 0,-13.086 0,-26.172 0,-39.258 -12.81337,0 -25.62674,0 -38.44011,0 z"
   id="54"
   inkscape:connector-curvature="0" />
<path
   style="fill:none;stroke:#000000;stroke-width:0.65429884"
   d="m 263.63781,1526.8479 c 0,12.8134 0,25.6267 0,38.4401 13.08599,0 26.17199,0 39.25798,0 0,-12.8134 0,-25.6267 0,-38.4401 -13.08599,0 -26.17199,0 -39.25798,0 z"
   id="55"
   inkscape:connector-curvature="0" />
<path
   style="fill:none;stroke:#000000;stroke-width:0.65429884"
   d="m 306.16716,1530.1192 c 0,13.086 0,26.172 0,39.258 12.81338,0 25.62677,0 38.44015,0 0,-13.086 0,-26.172 0,-39.258 -12.81338,0 -25.62677,0 -38.44015,0 z"
   id="56"
   inkscape:connector-curvature="0" />
<path
   style="fill:none;stroke:#000000;stroke-width:0.65429884"
   d="m 347.87939,1536.6627 c 0,13.086 0,26.172 0,39.258 13.08599,0 26.17197,0 39.25796,0 0,-13.086 0,-26.172 0,-39.258 -13.08599,0 -26.17197,0 -39.25796,0 z"
   id="57"
   inkscape:connector-curvature="0" />
<path
   style="fill:none;stroke:#000000;stroke-width:0.65429884"
   d="m 390.40868,1536.6627 c 0,13.086 0,26.172 0,39.258 19.62898,0 39.25797,0 58.88695,0 0,-13.086 0,-26.172 0,-39.258 -19.62898,0 -39.25797,0 -58.88695,0 z"
   id="58"
   inkscape:connector-curvature="0" />
<path
   style="fill:none;stroke:#000000;stroke-width:0.65429884"
   d="m 137.68549,1554.656 c 0,19.629 0,39.258 0,58.887 13.08599,0 26.17199,0 39.25798,0 0,-19.629 0,-39.258 0,-58.887 -13.08599,0 -26.17199,0 -39.25798,0 z"
   id="59"
   inkscape:connector-curvature="0" />
<path
   style="fill:none;stroke:#000000;stroke-width:0.65429884"
   d="m 179.39698,1575.1029 c 0,12.8134 0,25.6267 0,38.4401 13.08599,0 26.17198,0 39.25797,0 0,-12.8134 0,-25.6267 0,-38.4401 -13.08599,0 -26.17198,0 -39.25797,0 z"
   id="60"
   inkscape:connector-curvature="0" />
<path
   style="fill:none;stroke:#000000;stroke-width:0.65429884"
   d="m 221.92633,1571.8314 c 0,13.086 0,26.172 0,39.258 12.81337,0 25.62674,0 38.44011,0 0,-13.086 0,-26.172 0,-39.258 -12.81337,0 -25.62674,0 -38.44011,0 z"
   id="61"
   inkscape:connector-curvature="0" />
<path
   style="fill:none;stroke:#000000;stroke-width:0.65429884"
   d="m 263.63781,1568.5594 c 0,13.086 0,26.1719 0,39.2579 13.08599,0 26.17199,0 39.25798,0 0,-13.086 0,-26.1719 0,-39.2579 -13.08599,0 -26.17199,0 -39.25798,0 z"
   id="62"
   inkscape:connector-curvature="0" />
<path
   style="fill:none;stroke:#000000;stroke-width:0.65429884"
   d="m 306.16716,1571.8314 c 0,13.086 0,26.172 0,39.258 12.81338,0 25.62677,0 38.44015,0 0,-13.086 0,-26.172 0,-39.258 -12.81338,0 -25.62677,0 -38.44015,0 z"
   id="63"
   inkscape:connector-curvature="0" />
<path
   style="fill:none;stroke:#000000;stroke-width:0.65429884"
   d="m 347.87939,1579.192 c 0,13.086 0,26.172 0,39.258 13.08599,0 26.17197,0 39.25796,0 0,-13.086 0,-26.172 0,-39.258 -13.08599,0 -26.17197,0 -39.25796,0 z"
   id="64"
   inkscape:connector-curvature="0" />
<path
   style="fill:none;stroke:#000000;stroke-width:0.65429884"
   d="m 390.40868,1579.192 c 0,13.086 0,26.172 0,39.258 19.62898,0 39.25797,0 58.88695,0 0,-13.086 0,-26.172 0,-39.258 -19.62898,0 -39.25797,0 -58.88695,0 z"
   id="65"
   inkscape:connector-curvature="0" />
<path
   style="fill:none;stroke:#000000;stroke-width:0.65429884"
   d="m 221.92633,1614.3608 c 0,12.8133 0,25.6267 0,38.44 12.81337,0 25.62674,0 38.44011,0 0,-12.8133 0,-25.6267 0,-38.44 -12.81337,0 -25.62674,0 -38.44011,0 z"
   id="66"
   inkscape:connector-curvature="0" />
<path
   style="fill:none;stroke:#000000;stroke-width:0.65429884"
   d="m 263.63781,1610.2708 c 0,13.0862 0,26.1724 0,39.2586 13.08599,0 26.17199,0 39.25798,0 0,-13.0862 0,-26.1724 0,-39.2586 -13.08599,0 -26.17199,0 -39.25798,0 z"
   id="67"
   inkscape:connector-curvature="0" />
<path
   style="fill:none;stroke:#000000;stroke-width:0.65429884"
   d="m 306.16716,1614.3608 c 0,12.8133 0,25.6267 0,38.44 12.81338,0 25.62677,0 38.44015,0 0,-12.8133 0,-25.6267 0,-38.44 -12.81338,0 -25.62677,0 -38.44015,0 z"
   id="68"
   inkscape:connector-curvature="0" />
<path
   style="fill:none;stroke:#000000;stroke-width:0.65429884"
   d="m 347.87939,1620.9035 c 0,13.086 0,26.1719 0,39.2579 13.08599,0 26.17197,0 39.25796,0 0,-13.086 0,-26.1719 0,-39.2579 -13.08599,0 -26.17197,0 -39.25796,0 z"
   id="69"
   inkscape:connector-curvature="0" />
<path
   style="fill:none;stroke:#000000;stroke-width:0.65429884"
   d="m 389.59091,1620.9035 c 0,13.086 0,26.1719 0,39.2579 13.08597,0 26.17195,0 39.25792,0 0,-13.086 0,-26.1719 0,-39.2579 -13.08597,0 -26.17195,0 -39.25792,0 z"
   id="70"
   inkscape:connector-curvature="0" />
<path
   style="fill:none;stroke:#000000;stroke-width:0.65429884"
   d="m 120.7775,1597.7336 -33.954236,16.8013 15.657696,34.2132 34.51583,-16.2333 z"
   id="72"
   inkscape:connector-curvature="0"
   sodipodi:nodetypes="ccccc" />

       sodipodi:nodetypes=&quot;ccccccc&quot; /&gt;
    <path
   style="fill:none;stroke:#000000;stroke-width:0.65429884"
   d="m 177.74863,1618.5946 -34.97071,17.061 33.21712,70.3066 34.48143,-16.4734 z"
   id="75"
   inkscape:connector-curvature="0"
   sodipodi:nodetypes="ccccc" />
<path
   style="fill:none;stroke:#000000;stroke-width:0.65429884"
   d="m 139.6736,1636.6187 -34.67663,16.6581 32.28418,69.8671 34.92586,-16.3737 -32.49058,-70.1374 -0.0426,-0.014 z"
   id="74"
   inkscape:connector-curvature="0"
   sodipodi:nodetypes="ccccccc" />
<path
   style="fill:none;stroke:#000000;stroke-width:0.65429884"
   d="m 100.61081,1653.6186 -34.661185,15.8902 16.55627,34.8176 34.551635,-15.9033 z"
   id="73"
   inkscape:connector-curvature="0"
   sodipodi:nodetypes="ccccc" />
<path
   style="fill:none;stroke:#000000;stroke-width:0.65429884"
   d="m 117.84873,1691.9205 -33.543556,15.6212 15.65768,35.248 34.555156,-16.248 z"
   id="76"
   inkscape:connector-curvature="0"
   sodipodi:nodetypes="ccccccc" />
</g>
</svg>
